<svg xmlns="http://www.w3.org/2000/svg" xmlns:xlink="http://www.w3.org/1999/xlink" fill="none" version="1.1" width="108" height="108" viewBox="0 0 108 108"><defs><clipPath id="master_svg0_31_7201"><rect x="0" y="0" width="108" height="108" rx="0"/></clipPath></defs><g clip-path="url(#master_svg0_31_7201)"><g><g><path d="M59.9485109375,75.72938283691406C62.1711109375,74.55068283691406,53.1442109375,60.272282836914066,49.6800109375,49.640182836914065Q49.6676109375,49.603382836914065,49.6552109375,49.55428283691406C47.9044109375,44.18908283691406,47.5940109375,39.75698283691406,50.8720109375,38.44338283691406C58.9676109375,35.20218283691406,80.7339109375,58.87268283691406,83.1303109375,56.061182836914064C85.5392109375,53.24968283691406,77.46841093750001,45.49048283691406,68.5905109375,28.719782836914064C64.5799109375,21.132432836914063,64.3068109375,15.755002836914063,65.5484109375,11.998161836914063C52.0640109375,10.119742836914062,37.8842109375,14.306282836914063,27.516410937499998,24.54548283691406C17.3596009375,34.575982836914065,13.100700937500001,48.21608283691406,14.6900269375,61.27898283691406C30.3101109375,51.66598283691406,56.7699109375,77.42358283691406,59.9485109375,75.72938283691406Z" fill="#51ACE4" fill-opacity="1" style="mix-blend-mode:passthrough"/></g><g><path d="M14.3662109375,73.79327223339844C14.6890429375,73.58455923339844,15.0118739375,73.38812323339843,15.3471229375,73.20396423339844Q14.7014589375,73.54772723339843,14.3662109375,73.79327223339844Z" fill="#3A73C1" fill-opacity="1" style="mix-blend-mode:passthrough"/></g><g><path d="M67.3107015625,55.124440625C78.6222015625,62.822290625,101.4439015625,79.003690625,93.3731015625,58.819890625C94.54030156249999,61.950590625000004,94.71410156249999,64.418290625,93.3110015625,65.89159062499999C88.9404015625,70.434190625,69.2849015625,53.626620625,60.7422715625,48.924430625C60.6801915625,48.887600625,60.6181015625,48.850770625,60.5560215625,48.826210625C60.0841915625,48.568391625,59.6371915625,48.335124625,59.2026115625,48.114133625C58.0975315625,47.623043825,57.3649545625,47.598489625,57.0048725625,47.954529625C56.7565406625,48.224628625,56.6944576625,48.789380625,56.8558735625,49.599680625C56.9924565625,50.262650625,57.2656215625,51.097500625,57.650535562499996,52.067410625C57.5884535625,51.883250625,56.2350435625,47.598489625,67.3107015625,55.124440625Z" fill="#1F406E" fill-opacity="1" style="mix-blend-mode:passthrough"/></g><g><path d="M90.99390234375,24.544347216796876C85.77900234375,19.387847216796875,79.59550234375,15.766047216796874,73.01470234375,13.678947216796875Q71.02800234375,7.577157216796875,74.05770234375001,3.857147216796875C59.21990234375,13.335177216796875,87.74080234375,43.770447216796875,93.36550234375,58.82234721679688C101.44870234375,78.99394721679687,78.61460234375,62.82474721679687,67.31550234375,55.12694721679687C56.23990234375,47.588747216796875,57.58090234375,51.88574721679687,57.64290234375,52.069947216796876C61.47970234375,61.805747216796874,76.20580234375001,85.12024721679687,72.53050234375,90.53454721679688C68.29640234375,100.66324721679688,52.11760234375,84.24854721679688,37.47840234375,75.81414721679687C28.07900234375,70.38754721679688,21.22505234375,71.09964721679688,17.52490234375,72.30274721679687C19.71022234375,77.75394721679687,23.03787234375,82.87354721679688,27.507852343750002,87.29334721679687C45.04010234375,104.61614721679688,73.46170234375,104.61614721679688,90.99390234375,87.29334721679687C108.52620234375,69.97014721679687,108.52620234375,41.87974721679687,90.99390234375,24.544347216796876Z" fill="#3A73C1" fill-opacity="1" style="mix-blend-mode:passthrough"/></g><g><path d="M37.46873359375,75.81411147949218C52.10783359375,84.24854147949219,68.28673359375,100.66324147949219,72.53313359375,90.53454147949219C66.53593359375,99.34954147949219,50.33223359375,73.99707147949219,28.67773359375,67.08498147949219Q9.39474359375,60.92180147949219,3.85693359375,85.78324147949219Q8.27724359375,77.75394147949218,14.36133359375,73.80064147949219Q14.69663359375,73.54282147949219,15.34233359375,73.19905147949218C16.05003359375,72.81846147949219,16.75783359375,72.48697147949218,17.49033359375,72.22915147949219L17.52763359375,72.30281147949219C21.22773359375,71.09964147949219,28.08173359375,70.39984147949218,37.46873359375,75.81411147949218Z" fill="#1F406E" fill-opacity="1" style="mix-blend-mode:passthrough"/></g></g></g></svg>